<?xml version="1.0" encoding="UTF-8"?>
<svg id="Layer_1" data-name="Layer 1" xmlns="http://www.w3.org/2000/svg" viewBox="0 0 329 329">
  <defs>
    <style>
      .cls-1 {
        fill: #d15d1a;
      }

      .cls-2 {
        fill: #fff;
      }
    </style>
  </defs>
  <rect class="cls-1" width="329" height="329"/>
  <g>
    <path class="cls-2" d="M258.32,252.53c.04-.2.07-.41.07-.63,0-38.17-21.04-67.67-52.31-76.81,5.61-10.68,8.57-22.62,8.57-34.77,0-41.22-33.54-74.76-74.76-74.76s-74.76,33.54-74.76,74.76c0,17.14,5.95,33.9,16.75,47.17,9.89,12.15,23.45,20.93,38.46,25-5.57,11.43-8.67,24.78-8.67,39.41,0,.22.03.43.07.63-3.34,1.98-5.53,4.14-5.53,6.4,0,1.11.46,2.14,1.31,2.9,1.24,1.12,3.18,1.6,6.79,1.6,3.96,0,9.94-.58,19.19-1.54,13.77-1.42,32.63-3.37,52.88-3.37s38.74,1.98,52.06,3.42c16.28,1.76,21.54,2.21,24.09-.08.85-.77,1.33-1.81,1.33-2.94,0-2.27-2.19-4.42-5.53-6.4ZM71.14,140.32c0-37.91,30.85-68.76,68.76-68.76s68.76,30.85,68.76,68.76c0,11.67-2.97,23.14-8.58,33.28-.76-.15-1.53-.28-2.3-.41l.02-.3c0-.05,0-.1,0-.16,0-3.63-2.81-6.58-6.27-6.58h-4.63c4.34-7.88,6.63-16.74,6.63-25.83,0-29.57-24.05-53.62-53.62-53.62s-53.62,24.05-53.62,53.62c0,14.06,5.4,27.35,15.21,37.42,8.64,8.87,19.87,14.38,32.01,15.82-3.87,4.02-7.3,8.54-10.22,13.48-30.32-7.54-52.14-35.29-52.14-66.72ZM137.31,189.86c-26.47-1.35-47.03-22.87-47.03-49.54s22.26-49.62,49.62-49.62,49.62,22.26,49.62,49.62c0,9.16-2.51,18.06-7.25,25.83h-3.72c-3.46,0-6.27,2.95-6.27,6.58,0,.05,0,.1,0,.16l.02.3c-13.46,2.26-25.37,8.07-34.99,16.67ZM178.55,172.15h5.6c-1.96.02-3.9.12-5.81.28.07-.17.18-.27.21-.28ZM191.74,172.43c-1.91-.16-3.85-.26-5.81-.28h5.6s.15.11.22.28ZM161.09,182.4l4.02,35.31c.17,1.53,1.47,2.66,2.98,2.66.11,0,.23,0,.34-.02,1.65-.19,2.83-1.67,2.64-3.32l-4.16-36.51c1.86-.51,3.77-.93,5.71-1.28l1.29,24.56c.09,1.66,1.53,2.91,3.15,2.84,1.66-.09,2.93-1.5,2.84-3.15l-1.32-25.05c2.12-.19,4.26-.3,6.45-.3s4.33.11,6.45.3l-1.32,25.05c-.09,1.65,1.18,3.07,2.84,3.15.05,0,.11,0,.16,0,1.58,0,2.91-1.24,2.99-2.84l1.29-24.56c1.94.35,3.84.77,5.71,1.28l-4.16,36.48c-.19,1.65,1,3.13,2.64,3.32.12.01.23.02.34.02,1.5,0,2.8-1.13,2.98-2.66l4.02-35.28c25.54,9.67,42.59,34.94,43.36,67.22-4.03-1.67-8.61-3.15-12.88-4.36-9.61-2.73-29.46-7.31-54.43-7.31s-44.82,4.58-54.43,7.31c-4.27,1.21-8.85,2.69-12.88,4.36.77-32.28,17.82-57.55,43.36-67.22ZM239.09,255.99c-13.46-1.46-31.9-3.45-52.71-3.45s-39.59,1.96-53.49,3.4c-6.67.69-13.5,1.39-17.74,1.51,9.11-4.93,36.32-13.49,69.89-13.49s60.73,8.53,69.87,13.47c-3.89-.15-9.92-.8-15.81-1.44Z"/>
    <path class="cls-2" d="M143.2,135.53c-8.97-3.71-12.78-6.39-12.78-11.75,0-4.12,2.99-8.86,10.92-8.86,6.6,0,10.82,2.27,12.99,3.5l2.58-6.8c-2.99-1.75-7.21-3.4-13.4-3.61v-10h-6.39v10.41c-9.48,1.55-15.56,8.04-15.56,16.59s6.49,13.71,17.01,17.83c7.63,3.09,11.65,6.6,11.65,12.26s-4.95,10.1-12.26,10.1c-5.77,0-11.13-1.96-14.84-4.43l-2.47,6.91c3.61,2.58,9.79,4.43,15.77,4.53v10.41h6.49v-10.72c10.62-1.75,16.28-9.38,16.28-17.52,0-9.17-5.36-14.53-15.97-18.86Z"/>
  </g>
</svg>