<?xml version="1.0" encoding="UTF-8"?>
<svg xmlns="http://www.w3.org/2000/svg" viewBox="0 0 329 329">
  <defs>
    <style>
      .cls-1 {
        fill: #fff;
      }

      .cls-2 {
        fill: #912f0d;
      }
    </style>
  </defs>
  <g id="Layer_3">
    <rect class="cls-2" width="329" height="329"/>
  </g>
  <g id="Layer_1">
    <path class="cls-1" d="M247.43,96.25H81.57c-1.66,0-3,1.34-3,3s1.34,3,3,3h42.85c.27,7.23.84,28.43-.13,64.15-.94,34.82-29.37,60.87-29.66,61.13-1.23,1.11-1.33,3.01-.22,4.24.59.66,1.41.99,2.23.99.71,0,1.43-.25,2.01-.77,1.25-1.13,30.63-27.99,31.64-65.42.96-35.44.41-56.72.13-64.31h70.79c-.16,16.74-.86,95.27.04,106.97.52,6.73,3.64,12.38,8.79,15.91,3.55,2.44,7.84,3.69,12.37,3.69,2.48,0,5.04-.38,7.58-1.14,11.21-3.36,16.57-18.05,16.79-18.67.56-1.56-.25-3.27-1.81-3.83-1.56-.56-3.28.25-3.84,1.81-.04.12-4.57,12.46-12.87,14.95-5.43,1.63-10.83.99-14.83-1.75-3.62-2.48-5.82-6.54-6.2-11.43-.87-11.32-.17-90.2-.02-106.51h40.2c1.66,0,3-1.34,3-3s-1.34-3-3-3Z"/>
  </g>
</svg>