<?xml version="1.0" encoding="UTF-8"?>
<svg xmlns="http://www.w3.org/2000/svg" viewBox="0 0 329 329">
  <defs>
    <style>
      .cls-1 {
        fill: #fff;
      }

      .cls-2 {
        fill: #303f51;
      }
    </style>
  </defs>
  <g id="Layer_3">
    <rect class="cls-2" width="329" height="329"/>
  </g>
  <g id="Layer_1">
    <g>
      <path class="cls-1" d="M206.01,183.9c-2.94-2.92-7.02-4.33-11.48-3.94-4.27.36-8.39,2.34-11.59,5.56l-5.69,5.74-5.74-5.7c-6.81-6.76-17.16-7.41-23.08-1.44l-1.91,1.93c-2.92,2.94-4.32,7.02-3.94,11.48.36,4.27,2.34,8.39,5.56,11.59l27.01,26.81c.34.34.75.57,1.18.71.37.16.76.24,1.16.24.77,0,1.54-.3,2.13-.89l26.88-27.08c6.76-6.81,7.41-17.16,1.44-23.08l-1.93-1.91ZM202.24,204.67l-24.84,25.03-25.03-24.84c-2.21-2.2-3.57-4.98-3.81-7.84-.23-2.67.56-5.07,2.22-6.74l1.91-1.93c3.58-3.61,10.13-2.95,14.59,1.48l7.79,7.73c.62.62,1.44.9,2.25.86.78,0,1.56-.29,2.15-.88l7.72-7.78c2.2-2.21,4.98-3.57,7.84-3.81,2.67-.23,5.07.56,6.74,2.22l1.93,1.91c3.61,3.59,2.95,10.13-1.48,14.59Z"/>
      <path class="cls-1" d="M251.1,127.9c0-9.59-7.81-17.4-17.4-17.4h-3.2c-4.36,0-8.34,1.62-11.4,4.29v-18.09c0-9.59-7.81-17.4-17.4-17.4h-3.2c-4.36,0-8.34,1.62-11.4,4.29v-1.29c0-9.59-7.81-17.4-17.4-17.4h-3.2c-9.59,0-17.4,7.81-17.4,17.4v.49c-3.06-2.66-7.04-4.29-11.4-4.29h-3.2c-9.59,0-17.4,7.81-17.4,17.4v74.14l-4.92-7.42c-2.56-3.86-6.49-6.49-11.05-7.42-4.57-.92-9.21-.02-13.07,2.54l-2.67,1.77c-3.86,2.56-6.49,6.49-7.42,11.05-.92,4.57-.02,9.21,2.53,13.06l38.72,58.78c7.7,11.12,14.31,19.69,23.41,20.54l3.19.3c7.93.74,60.05.86,62.27.86h0c.05,0,.11,0,.16,0,.78-.04,1.68-.05,2.67-.06,8.34-.1,25.7-.31,29.7-21.9.08-.37,8.06-37.19,10.45-57.89.66-5.69.05-54.31.02-56.34ZM245.12,183.55c-2.36,20.41-10.27,56.94-10.37,57.4-3.12,16.84-15.12,16.98-23.89,17.09-1.04.01-2,.02-2.84.07-2.39,0-54.12-.13-61.64-.84l-3.19-.3c-6.52-.61-12.24-8.17-18.99-17.93l-38.69-58.73c-1.67-2.52-2.26-5.56-1.66-8.56.61-3,2.33-5.57,4.85-7.24l2.67-1.77c2.52-1.68,5.56-2.26,8.56-1.66,3,.61,5.57,2.33,7.24,4.85l10.11,15.24c.12.17.25.33.39.47.55.75,1.42,1.24,2.42,1.24,1.66,0,3-1.34,3-3v-84c0-6.29,5.11-11.4,11.4-11.4h3.2c6.29,0,11.4,5.11,11.4,11.4v63.58c0,1.66,1.34,3,3,3s3-1.34,3-3v-77.18c0-6.29,5.11-11.4,11.4-11.4h3.2c6.29,0,11.4,5.11,11.4,11.4v77.18c0,1.66,1.34,3,3,3s3-1.34,3-3v-62.78c0-6.29,5.11-11.4,11.4-11.4h3.2c6.29,0,11.4,5.11,11.4,11.4v62.78c0,1.66,1.34,3,3,3s3-1.34,3-3v-31.58c0-6.29,5.11-11.4,11.4-11.4h3.2c6.29,0,11.4,5.11,11.4,11.44.18,13.98.53,51.21.02,55.62Z"/>
    </g>
  </g>
</svg>