<?xml version="1.0" encoding="UTF-8"?>
<svg xmlns="http://www.w3.org/2000/svg" viewBox="0 0 329 329">
  <defs>
    <style>
      .cls-1 {
        fill: #fff;
      }

      .cls-2 {
        fill: #ca9721;
      }
    </style>
  </defs>
  <g id="Layer_3">
    <rect class="cls-2" width="329" height="329"/>
  </g>
  <g id="Layer_1">
    <g>
      <path class="cls-1" d="M238.1,122.99c-5.59-20.86-18.57-38.46-36.73-49.92l4.6-7.54-5.12-3.12-15.16,24.87c-9.48-5.31-20.39-8.35-32-8.35-36.23,0-65.71,29.48-65.71,65.71,0,24.18,13.14,45.34,32.64,56.75l-14.95,25.89,5.2,3,5.64-9.77c12.94,6.76,26.93,9.85,40.67,9.62v13.15h-18.62c-11.19,0-20.3,9.11-20.3,20.3v3h83.85v-3c0-11.19-9.11-20.3-20.3-20.3h-18.63v-13.47c26.76-2.34,52.01-17.25,66.44-42.23,11.37-19.69,14.39-42.63,8.5-64.6ZM93.96,144.64c0-32.92,26.79-59.71,59.71-59.71,22.23,0,41.65,12.22,51.93,30.29l-11.05,4.02-10.03-5.79c-.7-.4-1.53-.51-2.31-.29l-10.4,2.93-6.59-3.8c-2.7-1.56-5.84-1.97-8.84-1.17-3.01.81-5.52,2.73-7.07,5.43l-4.32,7.49c-.83,1.44-.34,3.27,1.1,4.1l21.4,12.35,4.43,16.52c.21.77.71,1.42,1.4,1.82l3.65,2.11c.68.39,1.48.5,2.24.31l4.82-1.23,5.36,3.09,2.85,10.62c.21.77.71,1.42,1.4,1.82l8,4.62c-10.89,14.65-28.33,24.17-47.95,24.17-32.93,0-59.71-26.79-59.71-59.72ZM204.96,175.19l-7.26-4.19-2.85-10.62c-.21-.77-.71-1.42-1.4-1.82l-7.49-4.32c-.68-.39-1.48-.5-2.24-.31l-4.82,1.23-1.51-.87-4.43-16.52c-.21-.77-.71-1.42-1.4-1.82l-19.88-11.47,2.83-4.9c.75-1.31,1.97-2.24,3.43-2.63,1.46-.39,2.98-.19,4.29.57l7.69,4.44c.7.4,1.54.51,2.31.29l10.4-2.93,10.14,5.85c.77.44,1.69.52,2.53.22l13.03-4.74c3.25,7.36,5.06,15.48,5.06,24.03,0,11.16-3.08,21.6-8.43,30.55ZM181.79,249.28c6.86,0,12.6,4.85,13.98,11.3h-71.22c1.38-6.45,7.13-11.3,13.99-11.3h43.25ZM224.4,184.59c-21.21,36.73-67.62,50.04-104.91,30.72l6.42-11.12c8.44,3.95,17.84,6.17,27.76,6.17,36.23,0,65.71-29.48,65.71-65.72,0-22.48-11.35-42.34-28.61-54.2l7.47-12.25c16.84,10.65,28.88,26.99,34.06,46.35,5.47,20.42,2.67,41.74-7.9,60.05Z"/>
      <path class="cls-1" d="M156.28,185.68l10.89-18.86c.4-.69.51-1.51.3-2.28l-4.75-17.72c-.21-.77-.71-1.42-1.4-1.82l-14.98-8.65c-.69-.4-1.51-.51-2.28-.3l-11.82,3.17c-.77.21-1.42.71-1.82,1.4l-4.32,7.49c-.83,1.44-.34,3.27,1.1,4.1l10.16,5.87,2.53,9.42-8.03,13.9c-.4.69-.51,1.51-.3,2.28s.71,1.42,1.4,1.82l5.13,2.96c.46.26.98.4,1.5.4.12,0,.23,0,.35-.02l14.11-1.67c.94-.11,1.77-.66,2.25-1.48ZM140.21,182.76l-1.67-.96,7.15-12.38c.4-.69.51-1.51.3-2.28l-3.17-11.82c-.21-.77-.71-1.42-1.4-1.82l-8.64-4.99,2.2-3.82,9.42-2.52,12.83,7.41,4.11,15.32-9.51,16.48-11.63,1.38Z"/>
    </g>
  </g>
</svg>